HIERARCHY
ROOT pelvis
{
  OFFSET 0 100 0
  CHANNELS 6 Xposition Yposition Zposition Zrotation Xrotation Yrotation
  JOINT pelvis_right_femur
  {
    OFFSET -10.78128 -3.44521 -0.5502486
    CHANNELS 3 Zrotation Xrotation Yrotation
    JOINT right_femur_tibia
    {
      OFFSET -0.8047443 -44.0398 -0.1307829
      CHANNELS 3 Zrotation Xrotation Yrotation
      JOINT right_tibia_foot
      {
        OFFSET 3.006224 -47.83518 -5
        CHANNELS 3 Zrotation Xrotation Yrotation
        End Site
        {
          OFFSET 0 -5 15
        }
      }
    }
  }
  JOINT pelvis_left_femur
  {
    OFFSET 10.78128 -3.44521 -0.5502486
    CHANNELS 3 Zrotation Xrotation Yrotation
    JOINT left_femur_tibia
    {
      OFFSET 0.8047443 -44.0398 -0.1307829
      CHANNELS 3 Zrotation Xrotation Yrotation
      JOINT left_tibia_foot
      {
        OFFSET -4.370144 -48.10324 -4.275266
        CHANNELS 3 Zrotation Xrotation Yrotation
        End Site
        {
          OFFSET 0 -5 15
        }
      }
    }
  }
  JOINT pelvis_spine1
  {
    OFFSET 0 6.468898 -3.129235
    CHANNELS 3 Zrotation Xrotation Yrotation
    JOINT spine1
    {
      OFFSET 0 23.15396 4.99043
      CHANNELS 3 Zrotation Xrotation Yrotation
      JOINT spine2
      {
        OFFSET 0 20.79997 -5.064912
        CHANNELS 3 Zrotation Xrotation Yrotation
        JOINT neck
        {
          OFFSET 0 14.38658 9.616178
          CHANNELS 3 Zrotation Xrotation Yrotation
          End Site
          {
            OFFSET 0 20 0
          }
        }
      }
      JOINT right_manubrium
      {
        OFFSET -5.722621 16.35077 3.967754
        CHANNELS 3 Zrotation Xrotation Yrotation
        JOINT right_clavicle
        {
          OFFSET -13.16364 1.694482 -4.693211
          CHANNELS 3 Zrotation Xrotation Yrotation
          JOINT right_humerus
          {
            OFFSET -28.5034 -0.3100689 -2.792744
            CHANNELS 3 Zrotation Xrotation Yrotation
            JOINT right_radius
            {
              OFFSET -25.15693 0.02248979 -1.271978
              CHANNELS 3 Zrotation Xrotation Yrotation
              End Site
              {
                OFFSET -15 0 0
              }
            }
          }
        }
      }
      JOINT left_manubrium
      {
        OFFSET 5.722621 16.35077 3.967754
        CHANNELS 3 Zrotation Xrotation Yrotation
        JOINT left_clavicle
        {
          OFFSET 13.16364 1.694482 -4.693211
          CHANNELS 3 Zrotation Xrotation Yrotation
          JOINT left_humerus
          {
            OFFSET 29.39168 -1.063119 -2.237045
            CHANNELS 3 Zrotation Xrotation Yrotation
            JOINT left_radius
            {
              OFFSET 24.59957 -0.9528479 0.9047498
              CHANNELS 3 Zrotation Xrotation Yrotation
              End Site
              {
                OFFSET 15 -0 -0
              }
            }
          }
        }
      }
    }
  }
}
MOTION
Frames: 9
Frame Time: 0.0416666666667
0 103.5113 0 1.678438 -2.566906 -0.0976419 1.554942 -13.05748 6.504069 -0 36.44335 -0 -6.058954 -17.40896 -5.379077 -6.822317 12.79045 -23.70537 -0 4.412895 -0 -0.2161304 -20.56288 22.50828 -4.487927 -3.133002 3.216922 2.144483 7.807619 -7.970957 0.734991 24.10273 6.867202 3.574229 -21.62716 7.478279 6.681669 -18.44312 11.10214 86.26075 36.34491 -21.05437 -0 0 14.83254 -8.68338 7.541553 6.084822 3.729652 -18.50097 -3.767027 -98.34926 41.56879 26.23111 0 0 -20.49881 -11.94816 17.05357 28.00121
0.08410954 103.685 1.097528 1.430756 -2.225001 -0.202762 2.101941 -15.38115 6.981109 -0 36.54669 -0 -5.598995 -16.85643 -5.421293 -6.687583 13.5241 -23.92138 -0 4.228526 -0 0.07011348 -21.22179 22.52713 -4.255483 -2.870607 3.200224 2.209238 7.739754 -7.967845 0.8791952 23.80462 7.015095 3.506427 -22.12476 7.959846 6.619919 -18.42169 11.09046 86.39659 36.18028 -21.22329 -0 0 15.01108 -8.320989 7.862604 5.736266 3.962661 -18.49336 -3.519746 -98.05168 41.05936 25.86128 0 0 -20.77032 -11.06505 17.00883 27.13011
0.6401455 104.3611 4.884425 0.7229575 -3.313163 0.2769639 0.2945594 -8.657151 1.010717 -0 40.10412 -0 -9.810803 2.354059 1.036679 -5.754489 5.467808 -19.85594 -0 8.573165 -0 -1.516125 -17.77451 19.7939 -3.360862 -1.747787 2.556902 0.6019383 9.370521 -5.219461 1.360345 23.30845 8.161309 5.364553 -21.23816 8.286844 5.856406 -17.41937 11.55751 84.18399 34.6862 -13.57319 -0 0 13.92867 -17.78905 10.52484 10.15953 5.849873 -19.17016 -3.284657 -93.30573 25.48356 21.43606 0 0 -10.05725 2.784681 19.77735 9.072292
1.155571 105.1265 8.948778 0.1101398 -2.432288 0.8067988 1.311651 -13.26611 0.8808437 -0 37.6466 -0 -9.92521 3.910928 1.201391 -5.269432 7.276714 -19.14631 -0 9.745096 -0 -1.971578 -18.61677 18.61171 -2.821113 -1.347395 2.240808 0.9448917 9.32854 -5.668638 1.319741 22.74973 8.401751 5.385059 -22.24053 8.580129 5.622488 -17.23768 11.59927 84.94996 34.31851 -14.77603 -0 0 13.30323 -17.26507 10.71206 9.753326 6.121779 -19.763 -3.184123 -92.5207 24.94028 20.42729 0 0 -11.99052 3.813326 19.02837 8.142276
1.57206 105.7178 13.24594 -0.8083689 -0.4353236 1.360538 3.352689 -21.542 1.754848 -0 31.21138 -0 -8.996258 2.732218 0.6270505 -4.765994 10.50274 -18.56251 -0 10.93789 -0 -1.591207 -19.90017 17.51462 -2.126847 -0.9638899 2.1053 1.788446 8.986233 -6.666145 1.249622 21.70022 8.64984 5.109333 -24.00012 9.221655 5.325274 -17.09724 11.58554 86.0956 34.33286 -17.25875 -0 0 12.55565 -15.10422 10.93334 8.619287 6.598 -20.57361 -2.608828 -91.18631 24.49053 18.75081 0 0 -16.46446 5.41307 17.38389 6.757941
2.055024 106.1542 18.01212 -1.127246 -0.2688662 1.922186 3.620396 -22.72091 0.8322867 -0 29.20625 -0 -9.76624 4.472431 1.632452 -4.52446 10.38303 -17.45798 -0 12.17871 -0 -0.7302983 -19.05107 17.19544 -1.782226 -0.8723355 1.979428 1.803176 9.382769 -6.612819 1.246282 21.44391 8.73712 5.176801 -24.18166 9.308708 4.869177 -17.03184 11.69432 86.48144 33.75227 -17.04951 -0 0 11.75358 -15.91594 11.05005 8.928113 7.04167 -21.19095 -2.602969 -89.9524 21.02306 17.24795 0 0 -16.81794 9.302372 16.71972 1.983552
2.687817 106.5786 23.172 -0.8191169 -1.469408 2.411821 2.704273 -20.01157 -1.448247 -0 30.10772 -0 -11.42991 7.448343 3.712836 -4.549123 8.437145 -16.31308 -0 13.35272 -0 1.368769 -16.88686 17.90731 -1.782204 -1.007339 1.920879 1.156588 10.38552 -5.842163 1.302182 21.79249 8.687251 5.622625 -22.91433 8.904013 4.629891 -16.8886 11.93216 86.05204 33.05517 -15.15431 -0 0 11.09477 -18.62301 11.23041 9.721955 7.79216 -21.88998 -3.158015 -88.92084 15.0936 15.38677 0 0 -14.60846 15.90859 16.47562 -6.682536
3.371218 107.0213 28.49363 -0.4584308 -1.838303 2.798271 2.398032 -20.12214 -3.2374 -0 27.85532 -0 -12.18465 8.231689 4.927907 -4.702588 7.739028 -15.36295 -0 14.76866 -0 3.520477 -15.71295 18.38397 -1.935155 -1.157329 2.0364 0.8676762 11.03532 -5.650272 1.227246 21.89285 8.55652 6.107203 -21.89793 8.242603 4.772267 -16.60185 12.10671 85.5507 32.99557 -14.62524 -0 0 10.61935 -19.88452 11.24569 9.65628 8.746543 -22.86416 -3.571141 -88.18255 10.86257 13.35892 0 0 -14.36289 21.12683 15.48499 -13.64714
4.033241 107.3475 33.89918 -0.02061336 -1.386392 3.027003 2.404592 -22.2716 -4.915536 -0 22.70288 -0 -12.50142 7.854977 5.693374 -5.036022 7.707682 -14.30613 -0 16.45071 -0 6.024148 -15.1641 18.70343 -2.298854 -1.419279 2.359596 0.9040114 11.51188 -5.964559 1.007648 21.70859 8.298095 6.695116 -21.16065 7.201288 5.192806 -16.26219 12.24944 84.93467 33.40934 -15.11004 -0 0 10.2771 -20.02508 10.86752 8.984606 9.975244 -24.21836 -3.768253 -87.56627 7.317826 11.06589 0 0 -15.50768 25.71694 13.63071 -19.88968
